<?xml version="1.0" encoding="utf-8"?>
<!-- Generator: Adobe Illustrator 13.0.0, SVG Export Plug-In . SVG Version: 6.00 Build 14948)  -->
<!DOCTYPE svg PUBLIC "-//W3C//DTD SVG 1.1//EN" "http://www.w3.org/Graphics/SVG/1.1/DTD/svg11.dtd">
<svg version="1.1" id="Layer_1" xmlns="http://www.w3.org/2000/svg" xmlns:xlink="http://www.w3.org/1999/xlink" x="0px" y="0px"
	 width="386px" height="110px" viewBox="0 0 386 110" enable-background="new 0 0 386 110" xml:space="preserve">
<path fill="#231F20" d="M56.848,7.32c26.995,0,49.017,22.02,49.017,49.016c0,26.994-22.021,49.014-49.017,49.014
	c-26.995,0-49.014-22.02-49.014-49.014C7.833,29.34,29.853,7.32,56.848,7.32"/>
<path fill="#93C00C" d="M79.628,56.365c-0.919-6.607-4.419-8.957-9.98-13.201c-1.02-0.774-1.959-1.675-2.892-2.649
	c-0.898-0.978-2.691-2.079-5.342-3.259c-2.645-1.183-6.191-2.242-10.629-3.176c-2.616-0.605-5.856-1.511-8.476-1.511
	c-0.571,0-1.14-0.118-1.795-0.368c-0.968-0.479-1.937-0.938-2.808-1.589c-1.715-1.019-3.261-1.502-4.688-1.425
	c-1.672,0-2.771,0.896-3.34,2.689c-3.056,0.938-4.564,2.444-4.48,4.52c0,1.375,0.637,3.427,2.074,4.486
	c1.379,0.827,2.867,1.924,3.995,3.059c0.356,0.262,2.36,1.984,2.729,2.157c0.735,0.569,1.551,1.138,2.407,1.752
	c0.889,0.679,2.059,1.376,2.892,1.993c0.571,0.365,1.099,0.691,1.547,1.02c-1.875,3.754-2.204,7.799-4.032,11.449
	c-0.047,0.095-0.084,0.201-0.123,0.283c-0.248,0.572-1.101,0.941-2.569,1.061c-1.555,0-2.867-0.029-4.376-0.029
	c-1.631-0.246-1.832,0.07-1.711,1.212c0.164,1.142,1.249,1.081,1.856,1.003c1.079-0.201,4.382-0.115,5.614-0.037
	c1.873,0.164,2.896,0.602,3.424,1.662c0.489,1.102,0.841,2.592,1.252,3.041c0.448,0.406,0.583,0.643,1.56,0.115
	c0.977-0.491,1.02-1.139,0.205-1.957c-0.858-0.855-1.265-2.23-1.181-3.205c1.005,0.401,2.061,0.405,3.115,0.7
	c1.017,0.241,2.409,0.72,3.672,1.003c1.701,0.5,2.972-0.859,1.085-1.707c-1.279-0.213-3.232-0.434-4.604-0.844
	c-0.428-0.164-2.604-0.848-2.604-1.621c0.332-3.119,2.076-5.715,3.163-9.645c1.721,0,10.596,7.991,11.937,9.334
	c-0.741,1.236-1.429,2.592-1.885,3.991c-0.491,1.231-1.069,3.753-1.339,5.089c-0.242,0.896-0.481,1.469-0.645,1.797
	c-0.952,0.949-2.456,1.592-3.668,2.197c-0.26,0.107-0.209-0.576-0.407-0.814c-0.213-0.311-1.701-1.641-2.205-1.522
	c-0.536,0.099-1.697,0.335-1.973,0.716c-0.348,0.672-0.194,1.266,0.69,1.34c0.11-0.018,0.182,0.012,0.371-0.156
	c0.741-0.618,1.4-0.516,1.731,0.396c0.368,0.574,0.162,0.938-0.608,1.143c-2.176,0.344-4.607,0.188-6.808,0.201
	c-1.263-0.078-1.752,0.249-1.506,1.023v0.036c0.123,0.286,0.244,0.569,0.407,0.778c0.205,0.282,0.403,0.417,0.688,0.458
	c0.917,0.013,1.208-0.438,2.44-0.708c1.693-0.307,2.952-0.205,4.489-0.119c0.735,0.041,1.431-0.041,2.08-0.245
	c0.487-0.078,0.931-0.308,1.388-0.491c-0.98,1.433-1.631,2.447-1.879,3.058c-0.729,1.552-0.569,2.448,0.534,2.608
	c0.448,0.081,0.773,0,1.056-0.16c0.409-0.25,0.653-0.818,0.732-1.674c0.139-0.627,0.281-1.217,0.612-1.712
	c0.839-0.814,4.908-1.571,5.704-2.075c0.08-0.205,0.164-0.369,0.244-0.573c0.289-0.614,0.512-1.265,0.819-1.87
	c0.972-2.231,1.914-4.482,2.769-6.764c0.676-1.526,1.224-3.242,1.631-4.85c0.323-1.225,0.364-1.994,0.244-2.408H62.19
	c2.176,0.017,5.743-0.393,8.027,0.615c0.348,1.738,0.872,3.441,1.711,5.014c0.448,1.281,1.048,2.383,1.776,3.283
	c1.899,3.565,6.548,4.09,9.835,2.338c1.377-0.791,2.745-1.598,4.032-2.53c0.612-0.405,1.181-0.893,1.752-1.425
	c-1.116,1.863-3.043,4-5.009,5.338c-3.236,2.17-7.375,1.666-10.799,2.895c-0.813,0.323-1.383,0.609-1.752,0.938
	c-0.244,0.205-0.364,0.486-0.364,0.732c0,0.61,0.528,0.811,1.545,0.569c0.043,1.261,0.45,1.425,1.263,0.491
	c0.86-1.035,2.485-1.425,3.789-1.425c0.408-0.045,1.183,0,2.364,0.159c1.183,0.123,2.403-0.245,3.627-1.101
	c0.08,1.425,0,2.935-0.207,4.482c0.031,1.011,1.92,0.954,2,0.041c0.039-0.405,0.039-0.938-0.041-1.548
	c-0.231-1.092-0.659-3.07,0.692-3.627c1.928-0.863,3.96-2.23,5.297-3.949c0.667-0.782,1.226-1.666,1.627-2.607
	c0.7-1.54,1.76-3.64,2.046-5.298c0.238-0.95,0.313-1.806-0.131-2.689c-0.46-0.806-1.093-1.384-1.916-1.793
	c-3.965-1.498-9.516,1.806-12.952,3.263C80.29,61.135,80.001,58.735,79.628,56.365"/>
<g>
	<path fill="#231F20" d="M166.409,52.31V28.363l-8.25,17.457h-4.024l-8.452-17.457V52.31h-5.433V16.49h5.433l10.464,22.287
		l10.263-22.287h5.434V52.31H166.409z"/>
	<path fill="#231F20" d="M181.143,52.31V16.49h5.434V52.31H181.143z"/>
	<path fill="#231F20" d="M195.932,52.31V16.49h5.433V47.43h17.256v4.88H195.932z"/>
	<path fill="#231F20" d="M224.804,52.31V16.49h5.434V47.43h17.256v4.88H224.804z"/>
	<path fill="#231F20" d="M253.677,52.31V16.49h22.89v4.88h-17.457v10.464h14.892v4.83h-14.892V47.43h17.457v4.88H253.677z"/>
	<path fill="#231F20" d="M303.779,52.31l-7.546-15.093h-6.792V52.31h-5.433V16.49h13.885c6.792,0,11.118,4.377,11.118,10.464
		c0,5.132-3.119,8.401-7.144,9.509l8.25,15.847H303.779z M297.491,21.37h-8.05v11.219h8.05c3.622,0,6.087-2.063,6.087-5.585
		S301.113,21.37,297.491,21.37z"/>
</g>
<g>
	<path fill="#93C00C" d="M166.409,98.435V74.488l-8.25,17.457h-4.024l-8.452-17.457v23.946h-5.433V62.615h5.433l10.464,22.287
		l10.263-22.287h5.434v35.819H166.409z"/>
	<path fill="#93C00C" d="M181.143,98.435V62.615h22.891v4.88h-17.457v10.464h14.892v4.83h-14.892v10.766h17.457v4.88H181.143z"/>
	<path fill="#93C00C" d="M233.309,95.064c-2.264,2.264-5.534,3.37-9.257,3.37h-12.577V62.615h12.577
		c3.723,0,6.993,1.106,9.257,3.371c3.874,3.873,3.622,9.105,3.622,14.287S237.183,91.19,233.309,95.064z M229.586,69.91
		c-1.51-1.66-3.521-2.415-6.088-2.415h-6.59v26.06h6.59c2.566,0,4.578-0.755,6.088-2.415c1.861-2.063,1.911-5.937,1.911-10.866
		S231.447,71.973,229.586,69.91z"/>
	<path fill="#93C00C" d="M244.975,98.435V62.615h22.891v4.88h-17.457v10.464H265.3v4.83h-14.892v10.766h17.457v4.88H244.975z"/>
	<path fill="#93C00C" d="M275.307,98.435V62.615h5.434v35.819H275.307z"/>
	<path fill="#93C00C" d="M309.866,98.435l-7.547-15.093h-6.791v15.093h-5.434V62.615h13.886c6.791,0,11.117,4.377,11.117,10.464
		c0,5.132-3.119,8.401-7.144,9.509l8.251,15.847H309.866z M303.577,67.495h-8.049v11.219h8.049c3.623,0,6.088-2.063,6.088-5.585
		S307.2,67.495,303.577,67.495z"/>
	<path fill="#93C00C" d="M344.071,94.913c-2.465,2.465-5.635,3.823-9.458,3.823s-6.942-1.358-9.407-3.823
		c-3.521-3.521-3.472-7.496-3.472-14.388c0-6.893-0.05-10.867,3.472-14.389c2.465-2.465,5.584-3.823,9.407-3.823
		s6.993,1.358,9.458,3.823c3.521,3.521,3.421,7.496,3.421,14.389C347.492,87.417,347.593,91.392,344.071,94.913z M339.946,69.406
		c-1.258-1.357-3.22-2.213-5.333-2.213c-2.112,0-4.074,0.855-5.332,2.213c-1.761,1.912-2.113,3.924-2.113,11.119
		c0,7.193,0.353,9.206,2.113,11.117c1.258,1.359,3.22,2.214,5.332,2.214c2.113,0,4.075-0.854,5.333-2.214
		c1.761-1.911,2.112-3.924,2.112-11.117C342.059,73.33,341.707,71.318,339.946,69.406z"/>
	<path fill="#93C00C" d="M365.045,98.736c-5.383,0-9.256-1.258-12.678-4.729l3.623-3.572c2.615,2.616,5.483,3.421,9.155,3.421
		c4.679,0,7.396-2.013,7.396-5.483c0-1.56-0.452-2.867-1.408-3.723c-0.905-0.855-1.812-1.207-3.924-1.51l-4.227-0.604
		c-2.918-0.402-5.231-1.408-6.791-2.867c-1.761-1.66-2.616-3.924-2.616-6.842c0-6.238,4.527-10.515,11.974-10.515
		c4.729,0,8.049,1.207,11.118,4.075l-3.472,3.42c-2.214-2.112-4.779-2.767-7.798-2.767c-4.226,0-6.54,2.415-6.54,5.585
		c0,1.308,0.402,2.465,1.358,3.32c0.905,0.805,2.364,1.408,4.024,1.66l4.075,0.604c3.32,0.503,5.182,1.308,6.691,2.666
		c1.962,1.711,2.917,4.276,2.917,7.346C377.924,94.813,372.541,98.736,365.045,98.736z"/>
</g>
</svg>
